<?xml version="1.0" encoding="UTF-8"?>
<svg width="32px" height="30px" viewBox="0 0 32 30" version="1.1" xmlns="http://www.w3.org/2000/svg" xmlns:xlink="http://www.w3.org/1999/xlink">
    <title>87CC81E8-86B1-4953-B63F-912000FBD1EF@2x</title>
    <defs>
        <filter color-interpolation-filters="auto" id="filter-1">
            <feColorMatrix in="SourceGraphic" type="matrix" values="0 0 0 0 0.023529 0 0 0 0 0.388235 0 0 0 0 0.329412 0 0 0 1.000000 0"></feColorMatrix>
        </filter>
    </defs>
    <g id="Page-1" stroke="none" stroke-width="1" fill="none" fill-rule="evenodd">
        <g id="highway-svgrepo-com" transform="translate(-670.000000, -2351.000000)" filter="url(#filter-1)">
            <g transform="translate(670.000000, 2351.000000)">
                <path d="M23.2207091,10.5399092 C22.4420318,7.0265799 21.6632758,3.51325062 20.8841265,2.23548903e-15 C19.5691843,2.23548903e-15 18.2543207,2.23548903e-15 16.9396145,2.23548903e-15 C17.1275196,3.51332928 17.3156606,7.02665856 17.503723,10.5399092 L23.2207091,10.5399092 Z" id="Path" fill="#000000" fill-rule="nonzero"></path>
                <path d="M17.8037104,16.1484311 C18.0510781,20.7656732 18.2981312,25.3827579 18.5451056,30 C21.5413617,30 24.5376177,30 27.5337951,30 C26.5101884,25.3828366 25.4871322,20.7656732 24.4639973,16.1484311 L17.8037104,16.1484311 Z" id="Path" fill="#000000" fill-rule="nonzero"></path>
                <path d="M14.4279474,1.11774451e-15 C13.1131625,1.11774451e-15 11.7982203,1.11774451e-15 10.4835141,1.11774451e-15 C9.70467941,3.51325062 8.92631667,7.0265799 8.14763932,10.5399092 L13.8643895,10.5399092 C14.0520586,7.0265799 14.2398064,3.51325062 14.4279474,1.11774451e-15 Z" id="Path" fill="#000000" fill-rule="nonzero"></path>
                <path d="M3.83376681,30 C6.83018017,30 9.82627892,30 12.8224563,30 C13.0703746,25.3828366 13.3174277,20.7656732 13.5641662,16.1484311 L6.90466577,16.1484311 C5.88137362,20.7656732 4.85792416,25.3829152 3.83376681,30 Z" id="Path" fill="#000000" fill-rule="nonzero"></path>
                <path d="M31.0036286,11.9961931 L0.364011997,11.9961931 C0.162971663,11.9961931 0,12.1591648 0,12.3602051 L0,14.3281352 C0,14.5291755 0.162971663,14.6921472 0.364011997,14.6921472 L2.33414435,14.6921472 L2.33414435,17.6397949 C2.33414435,17.8408352 2.49703736,18.0038855 2.69807769,18.0038855 L4.66412002,18.0038855 C4.83063112,18.0038855 4.97590557,17.8907807 5.0168058,17.7295394 L5.7890335,14.6923045 L25.5786071,14.6923045 L26.3506775,17.7295394 C26.3915777,17.890938 26.5370095,18.0038855 26.7035206,18.0038855 L28.6692483,18.0038855 C28.8705246,18.0038855 29.0333389,17.8408352 29.0333389,17.6397949 L29.0333389,14.6921472 L31.0035499,14.6921472 C31.2046689,14.6921472 31.3676406,14.5291755 31.3676406,14.3281352 L31.3676406,12.3602051 C31.3676406,12.1591648 31.2046689,11.9961931 31.0036286,11.9961931 Z" id="Path" fill="#000000" fill-rule="nonzero"></path>
            </g>
        </g>
    </g>
</svg>