<?xml version="1.0" encoding="UTF-8"?>
<svg width="23px" height="30px" viewBox="0 0 23 30" version="1.1" xmlns="http://www.w3.org/2000/svg" xmlns:xlink="http://www.w3.org/1999/xlink">
    <title>91CCC1AC-1354-40D7-BE1A-F66B886959C2@2x</title>
    <defs>
        <filter color-interpolation-filters="auto" id="filter-1">
            <feColorMatrix in="SourceGraphic" type="matrix" values="0 0 0 0 0.023529 0 0 0 0 0.388235 0 0 0 0 0.329412 0 0 0 1.000000 0"></feColorMatrix>
        </filter>
    </defs>
    <g id="Page-1" stroke="none" stroke-width="1" fill="none" fill-rule="evenodd">
        <g id="shopping-bag-svgrepo-com" transform="translate(-675.000000, -2489.000000)" filter="url(#filter-1)">
            <g transform="translate(675.000000, 2489.000000)">
                <path d="M17.4335922,7.4049857 L17.4335922,6.39354311 C17.4335922,2.86881896 14.5647732,0 11.040049,0 C7.51532489,0 4.64650593,2.86881896 4.64650593,6.39354311 L4.64650593,7.4049857 L0,7.4049857 L0,25.9664896 C0,28.1916633 1.80833674,30 4.03351042,30 L18.0465877,30 C20.2717613,30 22.0800981,28.1916633 22.0800981,25.9664896 L22.0800981,7.4049857 L17.4335922,7.4049857 Z M6.22190437,12.1127912 C5.47404986,12.1127912 4.86718431,11.5059256 4.86718431,10.7580711 C4.86718431,10.0102166 5.47404986,9.40335104 6.22190437,9.40335104 C6.96975889,9.40335104 7.57662444,10.0102166 7.57662444,10.7580711 C7.57662444,11.5120556 6.96975889,12.1127912 6.22190437,12.1127912 Z M14.4850838,7.4049857 L7.5950143,7.4049857 L7.5950143,6.39354311 C7.5950143,4.49325705 9.13976298,2.94850838 11.040049,2.94850838 C12.9403351,2.94850838 14.4850838,4.49325705 14.4850838,6.39354311 L14.4850838,7.4049857 Z M15.8581937,12.1127912 C15.1103392,12.1127912 14.5034736,11.5059256 14.5034736,10.7580711 C14.5034736,10.0102166 15.1103392,9.40335104 15.8581937,9.40335104 C16.6060482,9.40335104 17.2129138,10.0102166 17.2129138,10.7580711 C17.2067838,11.5120556 16.6060482,12.1127912 15.8581937,12.1127912 Z" id="Shape" fill="#066354" fill-rule="nonzero"></path>
            </g>
        </g>
    </g>
</svg>