<?xml version="1.0" encoding="UTF-8"?>
<svg width="36px" height="24px" viewBox="0 0 36 24" version="1.1" xmlns="http://www.w3.org/2000/svg" xmlns:xlink="http://www.w3.org/1999/xlink">
    <title>05C1EBE1-1A7A-49C5-B743-ADCF308D6B8C@2x</title>
    <defs>
        <filter color-interpolation-filters="auto" id="filter-1">
            <feColorMatrix in="SourceGraphic" type="matrix" values="0 0 0 0 0.023529 0 0 0 0 0.388235 0 0 0 0 0.329412 0 0 0 1.000000 0"></feColorMatrix>
        </filter>
    </defs>
    <g id="Page-1" stroke="none" stroke-width="1" fill="none" fill-rule="evenodd">
        <g id="train-svgrepo-com-(1)" transform="translate(-668.000000, -2424.000000)" filter="url(#filter-1)">
            <g transform="translate(668.000000, 2424.000000)">
                <path d="M1.2445542,19.3007562 L33.9352477,19.3007562 C34.6225593,19.3007562 35.1798019,18.7435136 35.1798019,18.056202 L35.1798019,9.31793772 C35.178359,9.05422663 35.0926769,8.79779886 34.9403456,8.5890562 C31.6445754,4.0765595 27.8157486,1.06346444 21.9945221,0.204651268 C20.7180862,-0.062014379 19.3731459,0.0084139353 1.2445542,0.0084139353 C0.557242565,0.0084139353 0,0.565656501 0,1.25296814 C0,1.54375119 0,17.8335111 0,18.0561333 C0,18.7435136 0.557242565,19.3007562 1.2445542,19.3007562 Z M32.6906935,10.5679888 L32.6906935,13.3475367 L30.3699946,13.3475367 L30.3699946,10.5679888 L32.6906935,10.5679888 L32.6906935,10.5679888 Z M22.9830608,2.92723812 C26.2499726,3.70277411 29.225483,5.5001734 31.4283433,8.07839939 L22.9830608,8.07839939 L22.9830608,2.92723812 Z M11.3670612,2.49752234 C20.090003,2.49752234 19.6927186,2.48247473 20.4938837,2.54184065 L20.4938837,8.07853681 L11.3670612,8.07853681 L11.3670612,2.49752234 Z M2.48910841,2.49752234 L8.87788411,2.49752234 L8.87788411,8.07839939 L2.48910841,8.07839939 L2.48910841,2.49752234 Z M2.48910841,15.8366451 C2.9397122,15.8366451 32.3008985,15.8366451 32.6906248,15.8366451 L32.6906248,16.8115791 L2.48910841,16.8115791 L2.48910841,15.8366451 Z" id="Shape" fill="#000000" fill-rule="nonzero"></path>
                <path d="M33.9352477,21.2486316 L1.2445542,21.2486316 C0.557242565,21.2486316 0,21.8058742 0,22.4931858 C0,23.1804974 0.557242565,23.73774 1.2445542,23.73774 L33.9352477,23.73774 C34.6225593,23.73774 35.1798019,23.1804974 35.1798019,22.4931858 C35.1798019,21.8058742 34.6225593,21.2486316 33.9352477,21.2486316 Z" id="Path" fill="#000000" fill-rule="nonzero"></path>
            </g>
        </g>
    </g>
</svg>