<svg id="Layer_1" data-name="Layer 1" xmlns="http://www.w3.org/2000/svg" viewBox="0 0 25.01 19.81"><path d="M23,8.75h0V1.62L21,0H4.06L2.12,1.62V8.75H2L0,12.89H25ZM20.08,7.9H19V7.09H6V7.9H5.1V2h15Z" transform="translate(-0.03 -0.01)" style="fill:#d8d8d8"/><polygon points="0.02 14.01 24.99 14.01 24.99 16.99 22.97 16.99 22.97 19.81 20.07 19.81 20.07 16.99 4.89 16.99 4.89 19.81 1.99 19.81 1.99 16.99 0.02 16.99 0.02 14.01" style="fill:#d8d8d8"/><rect x="6.61" y="4.11" width="4.79" height="1.89" style="fill:#d8d8d8"/><rect x="7.49" y="3.02" width="3.9" height="1.25" style="fill:#d8d8d8"/><rect x="13.61" y="4.11" width="4.79" height="1.89" style="fill:#d8d8d8"/><rect x="13.61" y="3.02" width="3.9" height="1.25" style="fill:#d8d8d8"/></svg>