<?xml version="1.0" encoding="UTF-8"?>
<svg width="45px" height="24px" viewBox="0 0 45 24" version="1.1" xmlns="http://www.w3.org/2000/svg" xmlns:xlink="http://www.w3.org/1999/xlink">
    <title>arrow-right@2x</title>
    <g id="Page-1" stroke="none" stroke-width="1" fill="none" fill-rule="evenodd">
        <g id="The-Home---TYPE-MOMIJI-REV-2" transform="translate(-1144.000000, -3285.000000)" fill="#ecc265" fill-rule="nonzero">
            <g id="arrow-right" transform="translate(1144.000000, 3285.000000)">
                <path d="M30.4383562,1.63835616 L31.6547945,0.421917808 C32.169863,-0.0931506849 33.0027397,-0.0931506849 33.5123288,0.421917808 L44.1643836,11.0684932 C44.6794521,11.5835616 44.6794521,12.4164384 44.1643836,12.9260274 L33.5123288,23.5780822 C32.9972603,24.0931507 32.1643836,24.0931507 31.6547945,23.5780822 L30.4383562,22.3616438 C29.9178082,21.8410959 29.9287671,20.9917808 30.460274,20.4821918 L37.0630137,14.1917808 L1.31506849,14.1917808 C0.58630137,14.1917808 0,13.6054795 0,12.8767123 L0,11.1232877 C0,10.3945205 0.58630137,9.80821918 1.31506849,9.80821918 L37.0630137,9.80821918 L30.460274,3.51780822 C29.9232877,3.00821918 29.9123288,2.15890411 30.4383562,1.63835616 Z" id="Path"></path>
            </g>
        </g>
    </g>
</svg>