<svg id="Layer_1" data-name="Layer 1" xmlns="http://www.w3.org/2000/svg" viewBox="0 0 24 24"><g id="Home-Page-Mobile-View"><g id="Mobile"><g id="Group"><g id="Instagram-Square-Copy"><rect id="Rectangle" width="24" height="24" rx="5" style="fill:#e60505"/></g><path id="Shape" d="M18.71,9.21A1.78,1.78,0,0,0,17.48,8,41,41,0,0,0,12,7.65a42.41,42.41,0,0,0-5.48.29A1.81,1.81,0,0,0,5.29,9.21,19.17,19.17,0,0,0,5,12.65a19,19,0,0,0,.29,3.43,1.74,1.74,0,0,0,1.23,1.26,39.77,39.77,0,0,0,5.48.31,41,41,0,0,0,5.48-.3,1.75,1.75,0,0,0,1.23-1.25A19.17,19.17,0,0,0,19,12.66a18.33,18.33,0,0,0-.29-3.45ZM10.6,14.79V10.51l3.65,2.14Z" transform="translate(0 -0.03)" style="fill:#fff"/></g></g></g></svg>