<svg id="Layer_1" data-name="Layer 1" xmlns="http://www.w3.org/2000/svg" xmlns:xlink="http://www.w3.org/1999/xlink" viewBox="0 0 24 24"><defs><linearGradient id="linear-gradient" x1="-272.27" y1="415.72" x2="-273.16" y2="414.77" gradientTransform="matrix(24, 0, 0, -24, 6555, 9980.09)" gradientUnits="userSpaceOnUse"><stop offset="0" stop-color="#af11ff"/><stop offset="0.23" stop-color="#db19b6"/><stop offset="0.36" stop-color="#ed1c99"/><stop offset="0.46" stop-color="#ee2294"/><stop offset="0.52" stop-color="#ef3285"/><stop offset="0.58" stop-color="#f24e6e"/><stop offset="0.7" stop-color="#f6734d"/><stop offset="0.79" stop-color="#fba422"/><stop offset="1" stop-color="#ffcb00"/></linearGradient></defs><g id="Home-Page-Mobile-View"><g id="Mobile"><g id="Group"><g id="Curve"><rect id="Rectangle" width="24" height="24" rx="5" style="fill:url(#linear-gradient)"/><path id="Shape" d="M15.94,4.08H8.06a4,4,0,0,0-4,4V16a4,4,0,0,0,4,4h7.88a4,4,0,0,0,4-4V8.1A4,4,0,0,0,15.94,4.08ZM18.22,16a2.28,2.28,0,0,1-2.28,2.28H8.06A2.28,2.28,0,0,1,5.78,16V8.1A2.29,2.29,0,0,1,8.06,5.81h7.88A2.29,2.29,0,0,1,18.22,8.1Zm-2-7.19a1,1,0,1,1,1-1,1,1,0,0,1-1,1ZM12,7.94A4.1,4.1,0,1,0,16.09,12,4.1,4.1,0,0,0,12,7.94Zm0,6.46A2.37,2.37,0,1,1,14.36,12,2.36,2.36,0,0,1,12,14.4Z" transform="translate(0 0)" style="fill:#fff"/></g></g></g></g></svg>