<?xml version="1.0" encoding="UTF-8"?>
<svg width="10px" height="12px" viewBox="0 0 10 12" version="1.1" xmlns="http://www.w3.org/2000/svg" xmlns:xlink="http://www.w3.org/1999/xlink">
    <title>2F6D9FBB-7E46-480F-930F-5700245492E9@0.5x</title>
    <g id="Home-Page-Mobile-View" stroke="none" stroke-width="1" fill="none" fill-rule="evenodd">
        <g id="Mobile" transform="translate(-33.000000, -2293.000000)">
            <g id="Group-3" transform="translate(16.000000, 2214.000000)">
                <g id="Filled/Action/calendar_today" transform="translate(16.000000, 79.000000)">
                    <polygon id="Path" points="0 0 12 0 12 12 0 12"></polygon>
                    <path d="M10,1.5 L9.5,1.5 L9.5,0.5 L8.5,0.5 L8.5,1.5 L3.5,1.5 L3.5,0.5 L2.5,0.5 L2.5,1.5 L2,1.5 C1.45,1.5 1,1.95 1,2.5 L1,10.5 C1,11.05 1.45,11.5 2,11.5 L10,11.5 C10.55,11.5 11,11.05 11,10.5 L11,2.5 C11,1.95 10.55,1.5 10,1.5 Z M2,10.5 L2,5 L10,5 L10,10.5 L2,10.5 Z" id="🎨-Shape-Color" fill="#868686"></path>
                </g>
            </g>
        </g>
    </g>
</svg>