<svg xmlns="http://www.w3.org/2000/svg" height="512" width="512" style=""><rect id="backgroundrect" width="100%" height="100%" x="0" y="0" fill="none" stroke="none" class="" style=""/><g class="currentLayer" style=""><title>Layer 1</title><path d="m501.64874710644983,134.11486867739288 c-5.904765685324891,-21.709639866882753 -23.21248499591703,-38.823109711233705 -45.16144941530266,-44.66884524221472 c-40.09798753900711,-10.850180757409802 -200.49306581971794,-10.850180757409802 -200.49306581971794,-10.850180757409802 s-160.3888236326385,0 -200.48681117164557,10.438813561295147 c-21.52674925317597,5.839549962938913 -39.25668372997777,23.37366535546766 -45.16144941530266,45.080212438329376 c-10.552267043483152,39.652028879701724 -10.552267043483152,121.88514076444118 -10.552267043483152,121.88514076444118 s0,82.64757107307177 10.552267043483152,121.88514076444118 c5.911020333397266,21.706547082861704 23.212484195270836,38.820016927212656 45.16457673933884,44.66575245819366 c40.51707538118059,10.853273541430852 200.48993849568174,10.853273541430852 200.48993849568174,10.853273541430852 s160.3888236326385,0 200.48681117164557,-10.438813561295147 c21.952092544068016,-5.8426435387633475 39.25668372997777,-22.956112591310916 45.16770406337504,-44.662659674172616 c10.549139719446964,-39.65512245552617 10.549139719446964,-121.88514076444118 10.549139719446964,-121.88514076444118 s0.4222159668558614,-82.65066464889621 -10.555394367519341,-122.30269352859791 zm-296.72073033564817,197.85496356223948 v-151.9396455955966 l133.3763965363111,75.9698227977983 zm0,0 " id="svg_1" class=""/></g></svg>