<svg id="Layer_1" data-name="Layer 1" xmlns="http://www.w3.org/2000/svg" viewBox="0 0 24 24"><g id="Home-Page-Mobile-View"><g id="Mobile"><g id="Group"><g id="Curve"><rect id="Rectangle" width="24" height="24" rx="5" style="fill:#50abf1"/><path id="Path" d="M18.39,9.68c0,.11,0,.23,0,.34A8.42,8.42,0,0,1,5.48,17.14h0A5.66,5.66,0,0,0,9.81,15.9,2.89,2.89,0,0,1,7.1,13.84a2.73,2.73,0,0,0,1.3-.06,2.8,2.8,0,0,1-2.33-2.93,3.07,3.07,0,0,0,1.27.38c-2.25-2-.84-3.91-.84-3.91a8.84,8.84,0,0,0,6.06,3.06,3,3,0,0,1-.07-.67,3,3,0,0,1,5.11-2L18,7.56A10,10,0,0,0,19.47,7a3.15,3.15,0,0,1-1.29,1.65h0a6.7,6.7,0,0,0,1.67-.43A6.74,6.74,0,0,1,18.39,9.68Z" transform="translate(0 0)" style="fill:#fff;fill-rule:evenodd"/></g></g></g></g></svg>